<?xml version="1.0" encoding="UTF-8" standalone="no"?>
<svg
   xmlns:dc="http://purl.org/dc/elements/1.1/"
   xmlns:cc="http://creativecommons.org/ns#"
   xmlns:rdf="http://www.w3.org/1999/02/22-rdf-syntax-ns#"
   xmlns:svg="http://www.w3.org/2000/svg"
   xmlns="http://www.w3.org/2000/svg"
   xmlns:sodipodi="http://sodipodi.sourceforge.net/DTD/sodipodi-0.dtd"
   xmlns:inkscape="http://www.inkscape.org/namespaces/inkscape"
   inkscape:version="1.0 (4035a4fb49, 2020-05-01)"
   sodipodi:docname="tiLogo.svg"
   id="svg7217"
   height="152.57687"
   width="158.0934"
   version="1.0">
  <metadata
     id="metadata26">
    <rdf:RDF>
      <cc:Work
         rdf:about="">
        <dc:format>image/svg+xml</dc:format>
        <dc:type
           rdf:resource="http://purl.org/dc/dcmitype/StillImage" />
        <dc:title></dc:title>
      </cc:Work>
    </rdf:RDF>
  </metadata>
  <sodipodi:namedview
     inkscape:current-layer="svg7217"
     inkscape:window-maximized="1"
     inkscape:window-y="-8"
     inkscape:window-x="-8"
     inkscape:cy="119.88183"
     inkscape:cx="206.65823"
     inkscape:zoom="1.4097672"
     showgrid="false"
     id="namedview24"
     inkscape:window-height="705"
     inkscape:window-width="1366"
     inkscape:pageshadow="2"
     inkscape:pageopacity="0"
     guidetolerance="10"
     gridtolerance="10"
     objecttolerance="10"
     borderopacity="1"
     bordercolor="#666666"
     pagecolor="#ffffff" />
  <defs
     id="defs7219" />
  <path
     id="path10"
     style="fill:#ffffff;fill-opacity:1;fill-rule:evenodd;stroke:none"
     d="m 118.8056,29.33132 c 11.9745,0 26.2367,1.21096 30.5422,3.36372 0,3.22914 0,14.12748 0,15.20385 0,15.33843 8.7456,17.4912 8.7456,17.4912 0,0 0,6.59281 0,14.12748 0,9.82198 -2.1527,16.4148 -2.1527,16.4148 -4.4402,1.07636 -15.3385,4.30553 -27.3134,13.05111 -8.7455,6.59282 -16.4146,16.4148 -16.4146,26.23675 0,6.4583 1.0762,10.89835 3.3636,15.20388 0,0 -4.4401,2.15277 -12.1091,2.15277 C 93.7797,151.50052 82.8814,143.8313 76.2885,131.85655 67.5429,116.6527 63.2375,98.08514 53.4153,98.08514 c -9.8217,0 -9.8217,9.82194 -17.4911,9.82194 -8.7456,0 -14.1276,-14.12748 -16.2803,-20.72029 C 14.1276,77.3648 1.0765,74.13567 0,58.79724 h 41.4405 c 0,-22.87306 0,-35.92418 0,-58.79724 15.2041,0 23.9497,0 39.1535,0 v 25.02583 c 1.2108,1.07636 4.4401,2.15276 8.7456,3.22913 L 85.0341,47.89889 H 73.0592 l -4.4401,17.4912 H 80.594 l -4.3055,21.7967 c 0,3.22913 -1.0765,10.89835 0,14.12748 2.1528,8.74558 7.669,11.97475 15.2038,11.97475 10.8983,0 20.7204,-5.38194 20.7204,-5.38194 l 4.4402,-14.12748 c -2.1528,0 -5.5167,0 -7.6694,0 -2.1528,0 -4.3055,0 -3.2293,-5.51645 l 5.382,-22.87306 h 11.9749 l 4.4401,-17.4912 h -11.9749 l 3.2293,-18.56757" />
  <path
     id="path14"
     style="fill:#ffffff;fill-opacity:1;fill-rule:evenodd;stroke:none"
     d="M 94.8559,35.92418 H 110.06 L 98.0851,92.70324 H 82.8814 L 94.8559,35.92418" />
  <path
     id="path18"
     style="fill:#ffffff;fill-opacity:1;fill-rule:evenodd;stroke:none"
     d="m 105.7542,15.20384 c 4.3058,0 8.7459,3.22913 8.7459,8.74558 0,4.30554 -4.4401,7.66922 -8.7459,7.66922 -4.4398,0 -8.7456,-3.36368 -8.7456,-7.66922 0,-5.51645 4.3058,-8.74558 8.7456,-8.74558" />
</svg>
